<?xml version="1.0" standalone="no"?>
<!DOCTYPE svg PUBLIC "-//W3C//DTD SVG 20010904//EN"
 "http://www.w3.org/TR/2001/REC-SVG-20010904/DTD/svg10.dtd">
<svg version="1.0" xmlns="http://www.w3.org/2000/svg"
 width="1387.000000pt" height="1168.000000pt" viewBox="0 0 1387.000000 1168.000000"
 preserveAspectRatio="xMidYMid meet">

<g transform="translate(0.000000,1168.000000) scale(0.100000,-0.100000)"
fill="#000000" stroke="none">
<path d="M7555 11660 c-352 -28 -652 -78 -972 -161 -1512 -393 -2774 -1339
-3585 -2689 -110 -182 -308 -586 -308 -626 0 -22 113 -19 132 4 9 9 54 94 100
187 213 426 449 783 767 1160 117 139 491 510 641 636 855 720 1794 1146 2870
1304 1522 224 3030 -157 4255 -1075 394 -295 775 -671 1088 -1073 466 -597
827 -1334 1010 -2062 122 -481 175 -872 184 -1345 8 -425 -17 -737 -93 -1138
-262 -1393 -1057 -2664 -2197 -3515 -754 -564 -1612 -923 -2542 -1066 -566
-87 -1188 -87 -1765 0 -795 120 -1556 416 -2250 874 -841 555 -1490 1287
-1956 2207 -57 114 -109 210 -114 213 -5 3 -32 9 -60 12 -85 10 -83 1 60 -292
440 -900 1128 -1678 1988 -2248 704 -468 1521 -782 2362 -911 245 -37 378 -46
770 -53 688 -11 1104 43 1740 227 1203 348 2288 1101 3040 2110 624 838 1016
1840 1127 2885 25 239 25 935 0 1170 -76 702 -243 1315 -523 1920 -617 1331
-1758 2406 -3143 2962 -470 189 -962 309 -1511 369 -168 19 -932 28 -1115 14z"/>
<path d="M2369 7810 c-57 -30 -311 -257 -604 -540 -180 -174 -287 -263 -312
-258 -20 4 -20 -30 -8 403 l8 271 -26 29 -25 30 -614 0 c-476 0 -628 -3 -680
-14 -115 -23 -103 68 -103 -783 1 -561 5 -821 18 -1063 9 -176 17 -414 18
-529 1 -216 5 -248 36 -261 24 -11 939 -26 1127 -18 127 5 152 9 167 24 17 17
19 39 20 242 1 122 4 256 8 297 6 73 7 75 34 78 21 3 35 -5 59 -30 59 -63 292
-333 434 -504 98 -118 154 -176 179 -188 60 -29 125 -23 206 19 113 57 238
139 323 210 94 78 217 167 303 219 35 21 70 47 78 59 22 31 18 76 -11 135 -27
55 -200 226 -594 586 -102 94 -191 181 -198 194 -9 15 -11 37 -8 57 6 28 26
49 119 122 368 289 607 527 607 605 0 69 -296 447 -453 579 -32 27 -62 49 -65
49 -4 -1 -23 -9 -43 -20z"/>
<path d="M7760 7750 c-113 -4 -340 -11 -505 -15 -170 -4 -315 -13 -334 -19
-61 -20 -70 -43 -83 -221 -16 -209 -16 -1361 0 -1670 6 -126 17 -337 24 -468
6 -133 17 -244 22 -252 6 -8 49 -22 96 -32 77 -16 146 -18 770 -17 377 0 818
6 980 13 280 11 296 12 313 32 9 12 17 34 17 51 0 62 -53 276 -100 401 -35 93
-20 90 -371 72 -276 -14 -433 -13 -443 4 -2 3 2 85 10 181 7 96 14 183 14 193
0 9 9 26 20 37 19 19 33 20 288 20 370 0 543 20 589 66 l23 24 -6 182 c-4 101
-12 198 -18 217 -26 81 -73 89 -536 99 -184 4 -341 11 -347 15 -17 11 -16 78
1 213 20 147 32 196 51 211 9 6 45 14 78 17 34 4 154 16 267 27 113 12 281 24
374 28 168 8 169 8 193 35 12 15 23 35 23 45 0 42 -81 417 -95 438 -33 50 -47
53 -336 68 -280 15 -615 17 -979 5z"/>
<path d="M3470 7727 c-67 -17 -64 38 -61 -950 1 -491 6 -1043 10 -1227 9 -355
18 -422 61 -464 20 -21 25 -21 813 -21 846 0 884 2 1122 52 336 70 534 175
699 369 148 174 238 392 283 684 21 144 24 496 4 615 -88 529 -352 823 -836
931 -74 17 -156 18 -1072 19 -546 0 -1006 -3 -1023 -8z m1445 -379 c36 -16 60
-59 90 -163 33 -116 45 -259 45 -565 0 -417 -47 -729 -141 -940 -36 -80 -57
-93 -145 -88 l-59 3 0 55 c1 30 6 192 13 360 6 168 17 528 23 800 7 346 14
499 22 509 30 36 105 50 152 29z"/>
<path d="M10505 7440 c-160 -26 -302 -76 -440 -157 -112 -65 -272 -227 -342
-347 -137 -233 -212 -563 -200 -881 16 -420 135 -715 358 -889 182 -143 404
-197 814 -199 210 -1 278 9 431 65 124 44 334 182 349 227 8 27 -23 523 -33
533 -6 6 -57 -14 -128 -50 -178 -89 -254 -115 -345 -116 -71 -1 -80 1 -120 30
-46 33 -103 115 -119 174 -42 146 -52 426 -21 587 35 182 70 251 160 320 90
69 208 79 458 37 121 -20 157 -24 163 -14 8 13 35 219 44 336 8 94 -3 107
-147 178 -140 70 -278 119 -404 146 -112 24 -379 35 -478 20z"/>
<path d="M7154 4279 c-62 -18 -67 -31 -72 -222 -5 -199 0 -220 51 -215 40 4
57 35 57 103 0 28 5 56 12 63 17 17 289 17 306 0 7 -7 12 -42 12 -85 l0 -73
45 0 c57 0 57 1 53 208 -4 226 6 218 -273 225 -88 3 -174 1 -191 -4z m344 -91
c7 -7 12 -21 12 -33 0 -40 -17 -45 -156 -45 -107 0 -136 3 -148 16 -19 18 -20
28 -6 55 10 17 22 19 148 19 94 0 142 -4 150 -12z"/>
<path d="M21 4266 c-8 -9 -11 -76 -9 -212 l3 -199 254 2 c154 1 258 6 264 12
7 7 5 18 -7 35 l-16 26 -208 2 -207 3 -3 43 c-2 28 1 44 10 47 7 2 76 8 153
12 137 8 140 8 143 32 2 13 -2 28 -10 32 -7 5 -74 9 -149 9 -149 0 -163 5
-157 57 2 23 9 29 43 36 22 5 106 6 187 3 158 -6 207 -1 215 21 14 35 -17 40
-258 47 -193 4 -239 3 -248 -8z"/>
<path d="M3692 4268 c-9 -9 -12 -64 -12 -204 0 -212 2 -218 62 -212 l33 3 0
210 0 210 -35 3 c-19 2 -41 -3 -48 -10z"/>
<path d="M8720 4260 c-11 -11 -20 -27 -20 -35 0 -25 -36 -35 -130 -35 -119 0
-173 -14 -206 -53 -25 -29 -26 -35 -22 -134 5 -151 -2 -147 239 -151 136 -2
195 0 205 9 19 15 21 388 2 407 -18 18 -45 15 -68 -8z m-40 -160 c15 -15 20
-33 20 -78 0 -88 -10 -96 -119 -101 -125 -4 -141 6 -141 92 0 96 11 104 143
106 65 1 80 -2 97 -19z"/>
<path d="M9203 4256 c-28 -24 -28 -25 -31 -167 -2 -78 -1 -158 3 -177 10 -54
43 -62 247 -62 188 0 233 7 267 44 21 22 22 30 19 174 -4 213 -3 212 -295 212
-178 0 -183 -1 -210 -24z m377 -71 c32 -17 40 -49 14 -59 -9 -3 -38 -6 -65 -6
-36 0 -54 -5 -69 -20 -23 -23 -24 -30 -7 -53 8 -12 33 -20 77 -25 61 -7 65 -9
68 -34 5 -43 -20 -49 -185 -46 l-148 3 4 115 c1 63 8 121 13 128 16 19 260 17
298 -3z"/>
<path d="M2714 4207 c-92 -53 -107 -59 -148 -53 -23 4 -90 10 -151 14 -60 4
-115 11 -122 15 -6 4 -23 3 -37 -3 l-27 -10 3 -157 3 -158 45 0 45 0 7 113 c3
62 9 119 12 127 7 20 95 20 122 0 25 -19 84 -19 134 1 24 10 45 13 50 8 4 -5
10 -53 12 -106 2 -70 7 -102 18 -113 24 -23 172 -40 235 -26 69 16 95 35 95
72 0 43 -23 46 -109 16 -82 -29 -126 -34 -133 -14 -2 6 -2 57 1 111 5 86 8 97
20 83 16 -21 89 -23 115 -4 10 7 17 22 14 33 -3 16 -14 20 -63 24 -34 3 -71
13 -85 23 -29 20 -29 20 -56 4z"/>
<path d="M1240 4198 c-40 -11 -90 -45 -90 -60 0 -5 11 -19 25 -30 23 -18 25
-26 25 -103 0 -125 14 -145 100 -143 19 1 59 -3 87 -7 83 -12 180 34 171 82
-6 34 -50 38 -119 11 -35 -14 -78 -29 -95 -32 -39 -9 -44 4 -44 123 l0 84 69
-6 c76 -6 98 5 86 42 -6 21 -46 38 -64 27 -5 -4 -29 0 -53 9 -49 17 -50 17
-98 3z"/>
<path d="M6445 4194 c-16 -9 -41 -23 -54 -31 l-23 -15 25 -26 c22 -24 26 -39
32 -129 4 -57 13 -109 19 -117 15 -21 196 -33 254 -17 41 12 82 41 82 60 0 5
-9 19 -19 32 l-19 24 -84 -28 c-131 -42 -128 -44 -128 61 0 48 4 92 8 98 4 7
31 11 66 10 46 -1 61 3 70 17 19 30 -4 51 -65 58 -30 3 -72 9 -94 13 -28 4
-49 1 -70 -10z"/>
<path d="M607 4183 c-4 -7 -11 -277 -8 -320 1 -8 16 -13 41 -13 53 0 60 16 60
144 l0 106 28 7 c35 10 192 10 215 1 15 -6 17 -23 17 -132 0 -138 2 -142 63
-125 l35 9 7 96 c9 110 -1 158 -41 195 -25 23 -31 24 -177 25 -84 0 -171 4
-193 9 -23 4 -44 3 -47 -2z"/>
<path d="M1690 4168 c-52 -26 -60 -47 -60 -159 0 -147 7 -152 220 -155 119 -1
164 2 193 13 48 19 61 43 41 71 -19 27 -41 27 -122 2 -71 -22 -128 -25 -184
-10 -54 15 -55 28 -6 50 53 24 77 25 138 3 40 -14 54 -15 88 -5 90 27 132 111
80 159 -46 42 -69 47 -210 49 -120 2 -142 -1 -178 -18z m206 -53 c10 -8 38
-15 62 -15 65 0 53 -23 -20 -39 -108 -22 -123 -23 -161 -7 -50 20 -46 39 11
58 61 21 84 21 108 3z"/>
<path d="M3148 4166 c-54 -28 -65 -47 -50 -80 15 -33 35 -33 107 0 60 28 94
31 185 17 38 -5 55 -13 55 -23 0 -21 -58 -30 -155 -23 -75 5 -91 3 -127 -16
-49 -24 -73 -55 -73 -92 0 -78 22 -86 260 -90 l195 -4 8 113 c9 141 -2 174
-65 202 -35 15 -68 18 -170 18 -113 0 -133 -2 -170 -22z m198 -182 c16 -11 36
-15 60 -11 26 4 37 2 41 -9 3 -8 4 -17 1 -19 -2 -2 -52 -9 -111 -15 -115 -11
-147 -5 -147 29 0 18 10 21 123 40 4 0 19 -6 33 -15z"/>
<path d="M3925 4175 c-9 -30 -12 -292 -4 -307 11 -21 71 -25 87 -5 5 6 12 61
14 120 3 81 7 110 18 117 41 25 211 22 227 -3 5 -7 10 -64 13 -127 l5 -115 39
-3 c24 -2 42 2 47 10 14 21 10 230 -4 257 -6 13 -25 34 -40 45 -27 20 -41 21
-214 21 -115 0 -187 -4 -188 -10z"/>
<path d="M4532 4178 c-14 -14 -17 -294 -3 -316 5 -8 23 -12 47 -10 l39 3 3
118 c3 133 -1 127 94 141 58 9 61 3 58 -137 -1 -56 -2 -108 -1 -115 1 -9 15
-12 49 -10 l47 3 5 115 c3 63 9 121 13 128 5 6 28 12 52 12 54 0 54 -1 58
-150 l2 -105 33 -3 c57 -6 62 6 62 140 l0 120 -35 35 c-35 35 -37 35 -93 28
-31 -4 -77 -7 -102 -8 -78 0 -284 11 -300 17 -9 4 -21 1 -28 -6z"/>
<path d="M5279 4170 c-52 -27 -58 -38 -65 -126 -8 -93 5 -144 42 -173 23 -18
39 -20 182 -17 210 5 199 3 222 26 31 31 26 66 -10 79 -16 5 -30 13 -30 16 0
4 13 19 29 34 59 55 48 120 -26 157 -36 19 -60 21 -175 22 -110 0 -139 -3
-169 -18z m230 -61 c37 -13 39 -40 4 -49 -13 -3 -32 -13 -44 -23 l-21 -19 26
-27 c33 -34 33 -57 0 -65 -30 -8 -92 2 -100 16 -4 6 7 21 25 35 17 13 31 33
31 43 0 24 -42 50 -80 50 -51 0 -36 25 23 37 74 14 100 15 136 2z"/>
<path d="M5827 4183 c-4 -7 -11 -261 -8 -315 1 -14 10 -18 45 -18 25 0 48 5
52 11 3 6 8 60 9 119 1 59 5 113 9 119 5 7 45 11 111 11 135 0 135 0 135 -134
0 -116 7 -129 62 -124 l33 3 3 134 c3 152 1 158 -74 187 -36 14 -59 15 -122 9
-101 -11 -147 -11 -203 -1 -26 4 -49 4 -52 -1z"/>
<path d="M7765 4174 c-12 -12 -15 -44 -15 -164 0 -140 1 -150 20 -160 15 -8
27 -8 48 2 27 13 27 14 30 125 2 88 6 114 19 125 23 19 179 18 218 -2 l30 -15
-4 -103 c-2 -71 1 -107 9 -117 15 -18 76 -20 86 -4 4 7 6 66 5 133 -2 137 -6
146 -79 178 -38 17 -55 19 -130 11 -98 -9 -98 -9 -169 0 -40 5 -56 2 -68 -9z"/>
<path d="M9845 4176 c-36 -17 -75 -52 -75 -69 0 -22 23 -37 57 -37 18 0 33 -4
33 -8 0 -5 -20 -27 -45 -49 -47 -42 -56 -73 -34 -115 21 -40 67 -48 263 -48
l186 0 6 24 c3 14 4 74 2 134 -3 122 -12 142 -75 168 -44 19 -276 18 -318 0z
m180 -196 c3 -5 14 -10 24 -10 10 0 24 -6 31 -14 9 -12 5 -16 -25 -22 -40 -7
-147 0 -164 11 -20 12 -1 25 37 25 20 0 44 5 52 10 19 13 37 13 45 0z"/>
<path d="M10392 4182 c-17 -5 -17 -303 0 -320 18 -18 75 -15 82 4 3 9 6 65 6
124 l0 109 33 5 c17 3 50 7 72 8 l40 3 5 -130 5 -130 45 0 45 0 5 118 c6 129
10 137 66 137 49 0 55 -16 53 -133 -1 -58 2 -110 5 -116 10 -16 72 -13 86 4 8
10 11 51 8 135 l-3 122 -34 30 c-36 32 -50 33 -160 12 -19 -4 -78 -2 -130 5
-111 13 -213 19 -229 13z"/>
<path d="M11145 4173 c-63 -33 -65 -36 -65 -158 0 -107 1 -113 26 -136 25 -23
32 -24 187 -27 139 -3 167 -1 195 14 47 25 53 61 16 90 l-28 23 21 23 c52 55
46 126 -13 165 -38 25 -293 29 -339 6z m195 -57 c19 -24 8 -60 -22 -70 -33
-12 -58 6 -58 40 0 38 55 59 80 30z m-6 -127 c51 -40 22 -78 -50 -64 -27 5
-34 11 -34 29 0 20 31 54 51 55 4 1 18 -8 33 -20z"/>
</g>
</svg>
